<?xml version="1.0" encoding="UTF-8"?>
<svg version="1.1" viewBox="0 0 80 80" xmlns="http://www.w3.org/2000/svg">
	<rect width="80" height="80" fill="none" />
	<g transform="matrix(2 0 0 2 -40 -43)">
		<g transform="translate(10)" fill="#f8f8f2">
			<path d="m23.4 29a10 10 0 0 0-3.42 7.53 10 10 0 0 0 10 10 10 10 0 0 0 10-10 10 10 0 0 0-3.38-7.49 8 8 0 0 1 1.38 4.49 8 8 0 0 1-8 8 8 8 0 0 1-8-8 8 8 0 0 1 1.42-4.53z"/>
			<polygon transform="matrix(.5 0 0 .5 25.5 25)" points="15 18 9 0 3 18 18 7 0 7"/>
		</g>
		<g transform="translate(10)" fill="none" stroke="#f8f8f2" stroke-width="3">
			<line x1="30" x2="30" y1="45" y2="58"/>
			<line x1="25" x2="35" y1="52" y2="52"/>
		</g>
	</g>
</svg>
