<?xml version="1.0" encoding="UTF-8"?>
<svg version="1.1" viewBox="0 0 300 200" xmlns="http://www.w3.org/2000/svg">
	<rect width="300" height="200" fill="#fff"/>
	<rect width="10" height="200" fill="#f00" x="30"/>
	<rect width="10" height="200" fill="#f90" x="40"/>
	<rect width="10" height="200" fill="#fc0" x="50"/>
	<rect width="10" height="200" fill="#6c3" x="60"/>
	<rect width="10" height="200" fill="#39f" x="70"/>
	<rect width="10" height="200" fill="#00c" x="80"/>
	<rect width="10" height="200" fill="#609" x="90"/>
	<g stroke-width="10" display="none">
		<polyline points="0,070 300,070" stroke="#f00"/>
		<polyline points="0,080 300,080" stroke="#f90"/>
		<polyline points="0,090 300,090" stroke="#fc0"/>
		<polyline points="0,100 300,100" stroke="#6c3"/>
		<polyline points="0,110 300,110" stroke="#39f"/>
		<polyline points="0,120 300,120" stroke="#00c"/>
		<polyline points="0,130 300,130" stroke="#609"/>
	</g>
	<path fill="#005" d="m150 129h100l-50-87zm50 29 50-87h-100z"/>
</svg>
