<?xml version="1.0" encoding="UTF-8"?>
<svg version="1.1" xmlns="http://www.w3.org/2000/svg" viewBox="0 0 80 80">
	<rect width="80" height="80" fill="none" />
	<path d="m40 12.3c-4.81-4.13-11.8-4.75-18.1-4.12-7.39 0.747-14.8 3.28-19.5 5.4a2.44 2.44 0 0 0-1.43 2.22v53.7a2.44 2.44 0 0 0 3.45 2.25c4.31-1.95 11.2-4.34 18-4.98 6.87-0.73 12.6 0.49 15.7 4.25a2.44 2.44 0 0 0 3.81 0c3.09-3.86 8.83-4.98 15.7-4.25 6.73 0.64 13.7 3.03 18 4.98a2.44 2.44 0 0 0 3.47-2.25v-53.7a2.44 2.44 0 0 0-1.42-2.22c-4.64-2.11-12.1-4.65-19.5-5.4-6.34-0.639-13.3-0.019-18.1 4.12z" fill="#f8f8f2"/>
</svg>
