<?xml version="1.0" encoding="UTF-8"?>
<svg version="1.1" xmlns="http://www.w3.org/2000/svg" viewBox="0 0 300 200">
	<path d="m300 0v200h-300z" fill="#ed2024"/>
	<path d="m300 0h-300v200z" fill="#278e43"/>
	<path d="m150 25 5.5 38.7 16.7-35.3-6.1 38.6 26.3-28.9-17.2 35.1 33.6-19.8-26.8 28.4 38-8.93-33.9 19.2 38.9 2.64-38.1 8.39 36.4 14-38.9-3.3 30.7 24.1-36.2-14.6 22.2 32.2-30.3-24.6 11.8 37.3-21.7-32.5 0.3 39.3-11.2-37.7-11.2 37.7 0.3-39.3-21.7 32.5 11.8-37.3-30.4 24.6 22.3-32.2-36.2 14.6 30.7-24.1-38.9 3.2 36.4-13.9-38.1-8.39 38.9-2.67-33.9-19.2 38 8.93-26.8-28.4 33.6 19.8-17.2-35.1 26.3 28.9-6.1-38.6 16.7 35.3z" fill="#febd11"/>
</svg>
